<svg width="10" height="15" viewBox="0 0 10 15" fill="none" xmlns="http://www.w3.org/2000/svg">
<path d="M2.86215 0.336543C2.89071 0.239356 2.94999 0.15404 3.03111 0.0933694C3.11223 0.0326992 3.21082 -5.92338e-05 3.31212 8.04061e-08H7.0619C7.13613 5.64282e-05 7.20928 0.0177421 7.27534 0.0516011C7.3414 0.08546 7.39847 0.134524 7.44186 0.194754C7.48525 0.254984 7.51371 0.324658 7.5249 0.398039C7.5361 0.471421 7.5297 0.546412 7.50624 0.616838L5.83759 5.62467H9.40551C9.49328 5.6246 9.57931 5.64919 9.6538 5.69563C9.72829 5.74207 9.78824 5.80848 9.82683 5.88732C9.86542 5.96616 9.88109 6.05425 9.87207 6.14157C9.86305 6.22888 9.82969 6.3119 9.7758 6.38118L3.21369 14.8182C3.14646 14.905 3.05088 14.9655 2.94361 14.9891C2.83634 15.0126 2.72421 14.9978 2.62677 14.9471C2.52933 14.8965 2.45278 14.8132 2.41048 14.7118C2.36817 14.6105 2.3628 14.4975 2.3953 14.3926L4.08364 8.90572H0.968508C0.895636 8.90576 0.823757 8.88881 0.758581 8.85622C0.693404 8.82362 0.636725 8.77628 0.593046 8.71795C0.549366 8.65962 0.519888 8.59191 0.506954 8.52019C0.49402 8.44848 0.497985 8.37473 0.518535 8.30482L2.86215 0.336543Z" fill="#8B8B8B"/>
</svg>
