<svg width="16" height="16" viewBox="0 0 16 16" fill="none" xmlns="http://www.w3.org/2000/svg">
<path d="M5.56711 9.07697L1.30627 13.3378" stroke="#8B8B8B"/>
<path d="M6.95457 10.4644L2.69373 14.7252" stroke="#8B8B8B"/>
<path d="M2.69369 14.7252C2.50971 14.9092 2.26017 15.0126 1.99998 15.0126C1.73979 15.0126 1.49026 14.9092 1.30627 14.7252" stroke="#8B8B8B" stroke-linecap="round" stroke-linejoin="round"/>
<path d="M1.30626 13.3378C1.12228 13.5218 1.01892 13.7713 1.01892 14.0315C1.01892 14.2917 1.12228 14.5412 1.30626 14.7252" stroke="#8B8B8B" stroke-linecap="round" stroke-linejoin="round"/>
<path d="M15.041 5.40525C15.041 5.985 14.9268 6.55907 14.7049 7.09469C14.4831 7.63031 14.1579 8.11698 13.7479 8.52693C13.338 8.93687 12.8513 9.26206 12.3157 9.48392C11.7801 9.70578 11.206 9.81997 10.6263 9.81997C10.0465 9.81997 9.47245 9.70578 8.93683 9.48392C8.40121 9.26206 7.91453 8.93687 7.50459 8.52693C7.09464 8.11698 6.76946 7.63031 6.5476 7.09469C6.32574 6.55907 6.21155 5.985 6.21155 5.40525C6.21155 4.23439 6.67667 3.11149 7.50459 2.28357C8.33251 1.45565 9.45541 0.990524 10.6263 0.990524C11.206 0.990524 11.7801 1.10471 12.3157 1.32657C12.8513 1.54844 13.338 1.87362 13.7479 2.28357C14.1579 2.69351 14.4831 3.18019 14.7049 3.7158C14.9268 4.25142 15.041 4.8255 15.041 5.40525Z" stroke="#8B8B8B" stroke-linecap="round" stroke-linejoin="round"/>
<path d="M5.56714 9.07697L6.95455 10.4644" stroke="#8B8B8B" stroke-linecap="round" stroke-linejoin="round"/>
<path d="M6.26086 9.77067L7.50461 8.52693" stroke="#8B8B8B" stroke-linecap="round" stroke-linejoin="round"/>
<path d="M4.38281 10.2612L5.77023 11.6486" stroke="#8B8B8B" stroke-linecap="round" stroke-linejoin="round"/>
<path d="M13.0788 5.40524C13.0788 6.05572 12.8204 6.67955 12.3605 7.13951C11.9005 7.59947 11.2767 7.85787 10.6262 7.85787" stroke="#8B8B8B" stroke-linecap="round" stroke-linejoin="round"/>
</svg>
